<?xml version="1.0" encoding="iso-8859-1"?>
<!-- Generator: Adobe Illustrator 19.0.0, SVG Export Plug-In . SVG Version: 6.00 Build 0)  -->
<svg version="1.1" id="Layer_1" xmlns="http://www.w3.org/2000/svg" xmlns:xlink="http://www.w3.org/1999/xlink" x="0px" y="0px"
	 viewBox="0 0 485 485" style="enable-background:new 0 0 485 485;" xml:space="preserve">
<g>
	<polygon points="163.07,268.626 321.93,268.626 321.93,153.056 380.926,153.056 242.5,1.374 104.074,153.056 163.07,153.056 	"/>
	<path d="M0,308.626v175h485v-175H0z M330,411.126c-8.284,0-15-6.716-15-15s6.716-15,15-15c8.284,0,15,6.716,15,15
		S338.284,411.126,330,411.126z M400,411.126c-8.284,0-15-6.716-15-15s6.716-15,15-15c8.284,0,15,6.716,15,15
		S408.284,411.126,400,411.126z"/>
</g>
<g>
</g>
<g>
</g>
<g>
</g>
<g>
</g>
<g>
</g>
<g>
</g>
<g>
</g>
<g>
</g>
<g>
</g>
<g>
</g>
<g>
</g>
<g>
</g>
<g>
</g>
<g>
</g>
<g>
</g>
</svg>
